<svg width="444" height="148" viewBox="0 0 444 148" fill="none" xmlns="http://www.w3.org/2000/svg">
<g clip-path="url(#clip0_1809_10053)">
<rect width="443.33" height="147.77" fill="#161616"/>
<path opacity="0.1" fill-rule="evenodd" clip-rule="evenodd" d="M23.7823 247.737V275.167H-4.03906V275.951H23.7823V303.381H-4.03906V304.164H23.7823V331.986H24.566V304.164H51.9955V331.986H52.7793V304.164H80.2088V331.986H80.9925V304.164H108.422V331.986H109.205V304.164H136.635V331.986H137.419V304.164H164.849V331.986H165.632V304.164H193.062V331.986H193.845V304.164H221.275V331.986H222.058V304.164H249.488V331.986H250.272V304.164H277.701V331.986H278.485V304.164H305.915V331.986H306.698V304.164H334.128V331.986H334.911V304.164H362.341V331.986H363.124V304.164H390.554V331.986H391.338V304.164H418.767V331.986H419.551V304.164H447.372V303.381H419.551V275.951H447.372V275.167H419.551V247.737H447.372V246.954H419.551V219.524H447.372V218.74H419.551V191.31H447.372V190.527H419.551V163.097H447.372V162.313H419.551V134.883H447.372V134.1H419.551V106.67H447.372V105.886H419.551V78.4566H447.372V77.6729H419.551V50.2431H447.372V49.4594H419.551V22.0296H447.372V21.2459H419.551V-6.18389H447.372V-6.9676H419.551V-34.3973H447.372V-35.181H419.551V-62.6108H447.372V-63.3946H419.551V-90.8243H447.372V-91.6081H419.551V-119.43H418.767V-91.6081H391.338V-119.43H390.554V-91.6081H363.124V-119.43H362.341V-91.6081H334.911V-119.43H334.128V-91.6081H306.698V-119.43H305.915V-91.6081H278.485V-119.43H277.701V-91.6081H250.272V-119.43H249.488V-91.6081H222.058V-119.43H221.275V-91.6081H193.845V-119.43H193.062V-91.6081H165.632V-119.43H164.849V-91.6081H137.419V-119.43H136.635V-91.6081H109.205V-119.43H108.422V-91.6081H80.9925V-119.43H80.2088V-91.6081H52.7793V-119.43H51.9955V-91.6081H24.566V-119.43H23.7823V-91.6081H-4.03906V-90.8244H23.7823V-63.3946H-4.03906V-62.6109H23.7823V-35.1811H-4.03906V-34.3974H23.7823V-6.96762H-4.03906V-6.18392H23.7823V21.2458H-4.03906V22.0295H23.7823V49.4593H-4.03906V50.243H23.7823V77.6728H-4.03906V78.4565H23.7823V105.886H-4.03906V106.67H23.7823V134.1H-4.03906V134.883H23.7823V162.313H-4.03906V163.097H23.7823V190.527H-4.03906V191.31H23.7823V218.74H-4.03906V219.524H23.7823V246.954H-4.03906V247.737H23.7823ZM418.767 303.381V275.951H391.338V303.381H418.767ZM390.554 303.381V275.951H363.124V303.381H390.554ZM362.341 303.381V275.951H334.911V303.381H362.341ZM334.128 303.381V275.951H306.698V303.381H334.128ZM305.915 303.381V275.951H278.485V303.381H305.915ZM277.701 303.381V275.951H250.272V303.381H277.701ZM249.488 303.381V275.951H222.058V303.381H249.488ZM221.275 303.381V275.951H193.845V303.381H221.275ZM193.062 303.381V275.951H165.632V303.381H193.062ZM164.849 303.381V275.951H137.419V303.381H164.849ZM136.635 303.381V275.951H109.205V303.381H136.635ZM108.422 303.381V275.951H80.9925V303.381H108.422ZM80.2088 303.381V275.951H52.7793V303.381H80.2088ZM51.9955 303.381V275.951H24.566V303.381H51.9955ZM51.9955 275.167H24.566V247.737H51.9955V275.167ZM80.2088 275.167H52.7793V247.737H80.2088V275.167ZM108.422 275.167H80.9925V247.737H108.422V275.167ZM136.635 275.167H109.205V247.737H136.635V275.167ZM164.849 275.167H137.419V247.737H164.849V275.167ZM193.062 275.167H165.632V247.737H193.062V275.167ZM221.275 275.167H193.845V247.737H221.275V275.167ZM249.488 275.167H222.058V247.737H249.488V275.167ZM277.701 275.167H250.272V247.737H277.701V275.167ZM305.915 275.167H278.485V247.737H305.915V275.167ZM334.128 275.167H306.698V247.737H334.128V275.167ZM362.341 275.167H334.911V247.737H362.341V275.167ZM390.554 275.167H363.124V247.737H390.554V275.167ZM418.767 275.167H391.338V247.737H418.767V275.167ZM418.767 -90.8243H391.338V-63.3946H418.767V-90.8243ZM418.767 -62.6109H391.338V-35.1811H418.767V-62.6109ZM418.767 -34.3974H391.338V-6.96762H418.767V-34.3974ZM418.767 -6.18392H391.338V21.2458H418.767V-6.18392ZM418.767 22.0295H391.338V49.4593H418.767V22.0295ZM418.767 50.243H391.338V77.6728H418.767V50.243ZM418.767 78.4565H391.338V105.886H418.767V78.4565ZM418.767 106.67H391.338V134.1H418.767V106.67ZM418.767 134.883H391.338V162.313H418.767V134.883ZM418.767 163.097H391.338V190.527H418.767V163.097ZM418.767 191.31H391.338V218.74H418.767V191.31ZM418.767 219.524H391.338V246.954H418.767V219.524ZM390.554 219.524V246.954H363.124V219.524H390.554ZM390.554 191.31V218.74H363.124V191.31H390.554ZM390.554 163.097V190.527H363.124V163.097H390.554ZM390.554 134.883V162.313H363.124V134.883H390.554ZM390.554 106.67V134.1H363.124V106.67H390.554ZM390.554 78.4565V105.886H363.124V78.4565H390.554ZM390.554 50.243V77.6728H363.124V50.243H390.554ZM390.554 22.0295V49.4593H363.124V22.0295H390.554ZM390.554 -6.18392V21.2458H363.124V-6.18392H390.554ZM390.554 -34.3974V-6.96762H363.124V-34.3974H390.554ZM390.554 -62.6109V-35.1811H363.124V-62.6109H390.554ZM390.554 -90.8243V-63.3946H363.124V-90.8243H390.554ZM24.566 246.954H51.9955V219.524H24.566V246.954ZM52.7793 246.954H80.2088V219.524H52.7793V246.954ZM80.9925 246.954H108.422V219.524H80.9925V246.954ZM109.205 246.954H136.635V219.524H109.205V246.954ZM137.419 246.954H164.849V219.524H137.419V246.954ZM165.632 246.954H193.062V219.524H165.632V246.954ZM193.845 246.954H221.275V219.524H193.845V246.954ZM222.058 246.954H249.488V219.524H222.058V246.954ZM250.272 246.954H277.701V219.524H250.272V246.954ZM278.485 246.954H305.915V219.524H278.485V246.954ZM306.698 246.954H334.128V219.524H306.698V246.954ZM334.911 246.954H362.341V219.524H334.911V246.954ZM362.341 191.31V218.74H334.911V191.31H362.341ZM362.341 163.097V190.527H334.911V163.097H362.341ZM362.341 134.883V162.313H334.911V134.883H362.341ZM362.341 106.67V134.1H334.911V106.67H362.341ZM362.341 78.4565V105.886H334.911V78.4565H362.341ZM362.341 50.243V77.6728H334.911V50.243H362.341ZM362.341 22.0295V49.4593H334.911V22.0295H362.341ZM362.341 -6.18392V21.2458H334.911V-6.18392H362.341ZM362.341 -34.3974V-6.96762H334.911V-34.3974H362.341ZM362.341 -62.6109V-35.1811H334.911V-62.6109H362.341ZM362.341 -90.8244V-63.3946H334.911V-90.8244H362.341ZM24.566 218.74H51.9955V191.31H24.566V218.74ZM52.7793 218.74H80.2088V191.31H52.7793V218.74ZM80.9925 218.74H108.422V191.31H80.9925V218.74ZM109.205 218.74H136.635V191.31H109.205V218.74ZM137.419 218.74H164.849V191.31H137.419V218.74ZM165.632 218.74H193.062V191.31H165.632V218.74ZM193.845 218.74H221.275V191.31H193.845V218.74ZM222.058 218.74H249.488V191.31H222.058V218.74ZM250.272 218.74H277.701V191.31H250.272V218.74ZM278.485 218.74H305.915V191.31H278.485V218.74ZM306.698 218.74H334.128V191.31H306.698V218.74ZM334.128 163.097V190.527H306.698V163.097H334.128ZM334.128 134.883V162.313H306.698V134.883H334.128ZM334.128 106.67V134.1H306.698V106.67H334.128ZM334.128 78.4565V105.886H306.698V78.4565H334.128ZM334.128 50.243V77.6728H306.698V50.243H334.128ZM334.128 22.0295V49.4593H306.698V22.0295H334.128ZM334.128 -6.18392V21.2458H306.698V-6.18392H334.128ZM334.128 -34.3974V-6.96762H306.698V-34.3974H334.128ZM334.128 -62.6109V-35.1811H306.698V-62.6109H334.128ZM334.128 -90.8244V-63.3946H306.698V-90.8244H334.128ZM24.566 190.527H51.9955V163.097H24.566V190.527ZM52.7793 190.527H80.2088V163.097H52.7793V190.527ZM80.9925 190.527H108.422V163.097H80.9925V190.527ZM109.205 190.527H136.635V163.097H109.205V190.527ZM137.419 190.527H164.849V163.097H137.419V190.527ZM165.632 190.527H193.062V163.097H165.632V190.527ZM193.845 190.527H221.275V163.097H193.845V190.527ZM222.058 190.527H249.488V163.097H222.058V190.527ZM250.272 190.527H277.701V163.097H250.272V190.527ZM278.485 190.527H305.915V163.097H278.485V190.527ZM305.915 134.883V162.313H278.485V134.883H305.915ZM305.915 106.67V134.1H278.485V106.67H305.915ZM305.915 78.4565V105.886H278.485V78.4565H305.915ZM305.915 50.243V77.6728H278.485V50.243H305.915ZM305.915 22.0295V49.4593H278.485V22.0295H305.915ZM305.915 -6.18392V21.2458H278.485V-6.18392H305.915ZM305.915 -34.3974V-6.96762H278.485V-34.3974H305.915ZM305.915 -62.6109V-35.1811H278.485V-62.6109H305.915ZM305.915 -90.8244V-63.3946H278.485V-90.8244H305.915ZM24.566 162.313H51.9955V134.883H24.566V162.313ZM52.7793 162.313H80.2088V134.883H52.7793V162.313ZM80.9925 162.313H108.422V134.883H80.9925V162.313ZM109.205 162.313H136.635V134.883H109.205V162.313ZM137.419 162.313H164.849V134.883H137.419V162.313ZM165.632 162.313H193.062V134.883H165.632V162.313ZM193.845 162.313H221.275V134.883H193.845V162.313ZM222.058 162.313H249.488V134.883H222.058V162.313ZM250.272 162.313H277.701V134.883H250.272V162.313ZM277.701 106.67V134.1H250.272V106.67H277.701ZM277.701 78.4565V105.886H250.272V78.4565H277.701ZM277.701 50.243V77.6728H250.272V50.243H277.701ZM277.701 22.0295V49.4593H250.272V22.0295H277.701ZM277.701 -6.18392V21.2458H250.272V-6.18392H277.701ZM277.701 -34.3974V-6.96762H250.272V-34.3974H277.701ZM277.701 -62.6109V-35.1811H250.272V-62.6109H277.701ZM277.701 -90.8244V-63.3946H250.272V-90.8244H277.701ZM24.566 134.1H51.9955V106.67H24.566V134.1ZM52.7793 134.1H80.2088V106.67H52.7793V134.1ZM80.9925 134.1H108.422V106.67H80.9925V134.1ZM109.205 134.1H136.635V106.67H109.205V134.1ZM137.419 134.1H164.849V106.67H137.419V134.1ZM165.632 134.1H193.062V106.67H165.632V134.1ZM193.845 134.1H221.275V106.67H193.845V134.1ZM222.058 134.1H249.488V106.67H222.058V134.1ZM249.488 78.4565V105.886H222.058V78.4565H249.488ZM249.488 50.243V77.6728H222.058V50.243H249.488ZM249.488 22.0295V49.4593H222.058V22.0295H249.488ZM249.488 -6.18392V21.2458H222.058V-6.18392H249.488ZM249.488 -34.3974V-6.96762H222.058V-34.3974H249.488ZM249.488 -62.6109V-35.1811H222.058V-62.6109H249.488ZM249.488 -90.8244V-63.3946H222.058V-90.8244H249.488ZM24.566 105.886H51.9955V78.4565H24.566V105.886ZM52.7793 105.886H80.2088V78.4565H52.7793V105.886ZM80.9925 105.886H108.422V78.4565H80.9925V105.886ZM109.205 105.886H136.635V78.4565H109.205V105.886ZM137.419 105.886H164.849V78.4565H137.419V105.886ZM165.632 105.886H193.062V78.4565H165.632V105.886ZM193.845 105.886H221.275V78.4565H193.845V105.886ZM221.275 50.243V77.6728H193.845V50.243H221.275ZM221.275 22.0295V49.4593H193.845V22.0295H221.275ZM221.275 -6.18392V21.2458H193.845V-6.18392H221.275ZM221.275 -34.3974V-6.96762H193.845V-34.3974H221.275ZM221.275 -62.6109V-35.1811H193.845V-62.6109H221.275ZM221.275 -90.8244V-63.3946H193.845V-90.8244H221.275ZM24.566 77.6728H51.9955V50.243H24.566V77.6728ZM52.7793 77.6728H80.2088V50.243H52.7793V77.6728ZM80.9925 77.6728H108.422V50.243H80.9925V77.6728ZM109.205 77.6728H136.635V50.243H109.205V77.6728ZM137.419 77.6728H164.849V50.243H137.419V77.6728ZM165.632 77.6728H193.062V50.243H165.632V77.6728ZM193.062 22.0295V49.4593H165.632V22.0295H193.062ZM193.062 -6.18392V21.2458H165.632V-6.18392H193.062ZM193.062 -34.3974V-6.96762H165.632V-34.3974H193.062ZM193.062 -62.6109V-35.1811H165.632V-62.6109H193.062ZM193.062 -90.8244V-63.3946H165.632V-90.8244H193.062ZM24.566 49.4593H51.9955V22.0295H24.566V49.4593ZM52.7793 49.4593H80.2088V22.0295H52.7793V49.4593ZM80.9925 49.4593H108.422V22.0295H80.9925V49.4593ZM109.205 49.4593H136.635V22.0295H109.205V49.4593ZM137.419 49.4593H164.849V22.0295H137.419V49.4593ZM164.849 -6.18392V21.2458H137.419V-6.18392H164.849ZM164.849 -34.3974V-6.96762H137.419V-34.3974H164.849ZM164.849 -62.6109V-35.1811H137.419V-62.6109H164.849ZM164.849 -90.8244V-63.3946H137.419V-90.8244H164.849ZM24.566 21.2458H51.9955V-6.18392H24.566V21.2458ZM52.7793 21.2458H80.2088V-6.18392H52.7793V21.2458ZM80.9925 21.2458H108.422V-6.18392H80.9925V21.2458ZM109.205 21.2458H136.635V-6.18392H109.205V21.2458ZM136.635 -34.3974V-6.96762H109.205V-34.3974H136.635ZM136.635 -62.6109V-35.1811H109.205V-62.6109H136.635ZM136.635 -90.8244V-63.3946H109.205V-90.8244H136.635ZM24.566 -6.96762H51.9955V-34.3974H24.566V-6.96762ZM52.7793 -6.96762H80.2088V-34.3974H52.7793V-6.96762ZM80.9925 -6.96762H108.422V-34.3974H80.9925V-6.96762ZM108.422 -62.6109V-35.1811H80.9925V-62.6109H108.422ZM108.422 -90.8244V-63.3946H80.9925V-90.8244H108.422ZM24.566 -35.1811H51.9955V-62.6109H24.566V-35.1811ZM52.7793 -35.1811H80.2088V-62.6109H52.7793V-35.1811ZM80.2088 -90.8244V-63.3946H52.7793V-90.8244H80.2088ZM24.566 -63.3946H51.9955V-90.8244H24.566V-63.3946Z" fill="url(#paint0_radial_1809_10053)" fill-opacity="0.6"/>
</g>
<defs>
<radialGradient id="paint0_radial_1809_10053" cx="0" cy="0" r="1" gradientUnits="userSpaceOnUse" gradientTransform="translate(221.667 176.361) rotate(90) scale(187.574 187.573)">
<stop stop-color="white"/>
<stop offset="1" stop-color="#7298F9" stop-opacity="0"/>
</radialGradient>
<clipPath id="clip0_1809_10053">
<rect width="443.33" height="147.77" fill="white"/>
</clipPath>
</defs>
</svg>
