<svg width="324" height="398" viewBox="0 0 324 398" fill="none" xmlns="http://www.w3.org/2000/svg">
<g clip-path="url(#clip0_1827_10097)">
<rect width="324" height="398" rx="12" fill="#232323"/>
<g clip-path="url(#clip1_1827_10097)">
<rect width="324" height="398" fill="url(#paint0_radial_1827_10097)"/>
<g clip-path="url(#clip2_1827_10097)">
<g clip-path="url(#clip3_1827_10097)">
<mask id="mask0_1827_10097" style="mask-type:luminance" maskUnits="userSpaceOnUse" x="0" y="-36" width="324" height="469">
<path d="M0 -35.25H324V432.267H0V-35.25Z" fill="white"/>
</mask>
<g mask="url(#mask0_1827_10097)">
<path d="M336.203 188.523H27.4962C20.2906 188.523 14.4492 194.365 14.4492 201.57V445.335C14.4492 452.54 20.2906 458.382 27.4962 458.382H336.203C343.409 458.382 349.25 452.54 349.25 445.335V201.57C349.25 194.365 343.409 188.523 336.203 188.523Z" fill="#1C1C1C"/>
<path d="M336.205 188.797H27.4978C20.4423 188.797 14.7227 194.517 14.7227 201.572V445.336C14.7227 452.392 20.4423 458.112 27.4978 458.112H336.205C343.26 458.112 348.98 452.392 348.98 445.336V201.572C348.98 194.517 343.26 188.797 336.205 188.797Z" stroke="#2E2E2E" strokeWidth="0.543624"/>
<path opacity="0.1" d="M22.2852 203.648C22.2854 201.762 23.0345 199.954 24.3675 198.621C25.7005 197.288 27.5084 196.539 29.3936 196.539H310.406C312.291 196.539 314.099 197.288 315.432 198.621C316.765 199.954 317.514 201.762 317.514 203.648V322.947C317.514 324.832 316.765 326.64 315.432 327.973C314.099 329.306 312.291 330.055 310.406 330.055H29.3936C27.5083 330.055 25.7003 329.306 24.3672 327.973C23.0341 326.64 22.2852 324.832 22.2852 322.947V203.648ZM22.2852 347.166C22.2854 345.281 23.0345 343.473 24.3675 342.14C25.7005 340.807 27.5084 340.058 29.3936 340.058H92.9302C94.8155 340.058 96.6235 340.807 97.9566 342.14C99.2897 343.473 100.039 345.281 100.039 347.166V406.694C100.039 408.58 99.2897 410.388 97.9566 411.721C96.6235 413.054 94.8155 413.803 92.9302 413.803H29.3936C27.5084 413.803 25.7005 413.054 24.3675 411.72C23.0345 410.387 22.2854 408.58 22.2852 406.694V347.166ZM109.289 392.823C109.289 391.803 109.695 390.824 110.417 390.102C111.138 389.381 112.117 388.975 113.138 388.975H310.551C311.061 388.967 311.569 389.06 312.043 389.25C312.518 389.439 312.95 389.721 313.314 390.08C313.678 390.438 313.967 390.865 314.165 391.336C314.362 391.807 314.464 392.313 314.464 392.824C314.464 393.335 314.362 393.84 314.165 394.312C313.967 394.783 313.678 395.21 313.314 395.568C312.95 395.926 312.518 396.208 312.043 396.398C311.569 396.588 311.061 396.681 310.551 396.672H113.138C112.117 396.672 111.138 396.267 110.416 395.545C109.694 394.823 109.289 393.844 109.289 392.823ZM109.289 343.907C109.289 343.401 109.388 342.901 109.582 342.434C109.775 341.967 110.059 341.543 110.416 341.185C110.774 340.828 111.198 340.544 111.665 340.351C112.132 340.158 112.632 340.058 113.138 340.058H154.877C155.898 340.058 156.877 340.464 157.599 341.185C158.321 341.907 158.726 342.886 158.726 343.907C158.726 344.928 158.321 345.907 157.599 346.628C156.877 347.35 155.898 347.756 154.877 347.756H113.138C112.632 347.756 112.132 347.656 111.665 347.463C111.198 347.269 110.774 346.986 110.416 346.628C110.059 346.271 109.775 345.847 109.582 345.38C109.388 344.913 109.289 344.412 109.289 343.907ZM164.046 343.907C164.046 342.886 164.451 341.907 165.173 341.186C165.895 340.464 166.873 340.058 167.894 340.058H183.721C184.742 340.058 185.721 340.464 186.442 341.185C187.164 341.907 187.57 342.886 187.57 343.907C187.57 344.928 187.164 345.907 186.442 346.628C185.721 347.35 184.742 347.756 183.721 347.756H167.894C166.873 347.755 165.895 347.35 165.173 346.628C164.451 345.906 164.046 344.927 164.046 343.907ZM292.052 343.907C292.052 343.401 292.152 342.901 292.345 342.434C292.539 341.967 292.822 341.543 293.179 341.185C293.537 340.828 293.961 340.544 294.428 340.351C294.895 340.158 295.396 340.058 295.901 340.058H311.727C312.748 340.058 313.727 340.464 314.449 341.185C315.17 341.907 315.576 342.886 315.576 343.907C315.576 344.928 315.17 345.907 314.449 346.628C313.727 347.35 312.748 347.756 311.727 347.756H295.901C295.396 347.756 294.895 347.656 294.428 347.463C293.961 347.269 293.537 346.986 293.179 346.628C292.822 346.271 292.539 345.847 292.345 345.38C292.152 344.913 292.052 344.412 292.052 343.907ZM109.289 409.956C109.289 409.451 109.388 408.95 109.582 408.483C109.775 408.016 110.059 407.592 110.416 407.235C110.774 406.877 111.198 406.594 111.665 406.4C112.132 406.207 112.632 406.107 113.138 406.107H310.551C311.56 406.124 312.522 406.537 313.23 407.257C313.938 407.977 314.335 408.946 314.335 409.956C314.335 410.965 313.938 411.934 313.23 412.654C312.522 413.374 311.56 413.787 310.551 413.804H113.138C112.117 413.804 111.138 413.399 110.417 412.677C109.695 411.955 109.289 410.977 109.289 409.956Z" fill="#707070"/>
<g filter="url(#filter0_f_1827_10097)">
<path d="M227.583 768.423C116.92 745.009 46.1904 636.319 69.6035 525.657C93.0167 414.994 201.707 344.264 312.369 367.677C423.032 391.09 493.762 499.78 470.349 610.443C446.936 721.106 338.246 791.836 227.583 768.423Z" fill="#161616"/>
</g>
<path d="M51.625 234.193C51.625 219.908 63.2064 208.328 77.4906 208.328C91.7749 208.328 103.354 219.907 103.354 234.191C103.354 248.474 91.7749 260.053 77.4917 260.053H51.6261L51.625 234.193Z" fill="#707070"/>
<mask id="mask1_1827_10097" style="mask-type:alpha" maskUnits="userSpaceOnUse" x="54" y="210" width="47" height="48">
<path d="M100.5 234.199C100.5 221.49 90.1971 211.188 77.4882 211.188C64.7792 211.188 54.4766 221.49 54.4766 234.199C54.4766 246.908 64.7792 257.211 77.4882 257.211C90.1971 257.211 100.5 246.908 100.5 234.199Z" fill="#D9D9D9" stroke="#232323" strokeWidth="0.730631"/>
</mask>
<g mask="url(#mask1_1827_10097)">
<path d="M100.863 234.197C100.863 221.286 90.397 210.82 77.4863 210.82C64.5756 210.82 54.1094 221.286 54.1094 234.197C54.1094 247.107 64.5756 257.573 77.4863 257.573C90.397 257.573 100.863 247.107 100.863 234.197Z" fill="#3FCF8E"/>
<path d="M66.2109 236.904V236.248L68.0712 235.912V236.821C68.0854 237.843 68.6583 238.304 69.4422 238.304C70.2533 238.304 70.7578 237.731 70.7578 236.863V230.008H72.6877V236.863C72.6877 238.654 71.3862 240.137 69.4564 240.137C67.4982 240.137 66.2109 238.849 66.2109 236.904ZM84.1538 236.863L85.9445 230.008H87.9179L85.1758 239.927H83.1883L80.9225 232.862L78.6567 239.927H76.6409L73.8847 230.008H75.9277L77.7456 236.835L79.9418 230.008H81.9423L84.1538 236.863Z" fill="#1C1C1C"/>
</g>
<path d="M101.812 251.724C101.812 247.972 98.7701 244.93 95.0174 244.93C91.2648 244.93 88.2227 247.972 88.2227 251.724C88.2227 255.477 91.2648 258.519 95.0174 258.519C98.7701 258.519 101.812 255.477 101.812 251.724Z" fill="#3FCF8E" stroke="#161616" strokeWidth="1.9016"/>
<path d="M160.914 323.458C160.914 309.173 172.495 297.594 186.78 297.594C201.063 297.594 212.643 309.173 212.643 323.456C212.643 337.739 201.064 349.319 186.781 349.319H160.914V323.458Z" fill="#707070"/>
<mask id="mask2_1827_10097" style="mask-type:alpha" maskUnits="userSpaceOnUse" x="163" y="300" width="48" height="47">
<path d="M209.789 323.457C209.789 310.748 199.486 300.445 186.777 300.445C174.068 300.445 163.766 310.748 163.766 323.457C163.766 336.166 174.068 346.469 186.777 346.469C199.486 346.469 209.789 336.166 209.789 323.457Z" fill="#D9D9D9" stroke="#232323" strokeWidth="0.730631"/>
</mask>
<g mask="url(#mask2_1827_10097)">
<path d="M210.152 323.454C210.152 310.544 199.686 300.078 186.775 300.078C173.865 300.078 163.398 310.544 163.398 323.454C163.398 336.365 173.865 346.831 186.775 346.831C199.686 346.831 210.152 336.365 210.152 323.454Z" fill="#3FCF8E"/>
<path d="M183.653 321.098H180.52V329.183H178.575V321.098H175.441V319.266H183.653V321.098ZM196.077 329.183H194.175V322.232L191.322 329.183H189.713L186.859 322.287V329.183H185.012V319.266H187.558L190.538 326.428L193.447 319.266H196.077V329.183Z" fill="#1C1C1C"/>
</g>
</g>
</g>
</g>
<g clip-path="url(#clip4_1827_10097)">
<g clip-path="url(#clip5_1827_10097)">
<g clip-path="url(#clip6_1827_10097)">
<path d="M96.5852 304.894L88.4363 283.483C88.2375 282.964 88.7219 282.448 89.2281 282.631L110.627 290.377C111.173 290.576 111.195 291.364 110.66 291.592L101.86 295.336C101.708 295.4 101.585 295.527 101.52 295.683L97.7493 304.909C97.5288 305.447 96.7913 305.436 96.5852 304.894Z" fill="#15593B"/>
</g>
</g>
</g>
</g>
</g>
<defs>
<filter id="filter0_f_1827_10097" x="-17.2428" y="280.835" width="574.439" height="574.431" filterUnits="userSpaceOnUse" color-interpolation-filters="sRGB">
<feFlood flood-opacity="0" result="BackgroundImageFix"/>
<feBlend mode="normal" in="SourceGraphic" in2="BackgroundImageFix" result="shape"/>
<feGaussianBlur stdDeviation="41.1839" result="effect1_foregroundBlur_1827_10097"/>
</filter>
<radialGradient id="paint0_radial_1827_10097" cx="0" cy="0" r="1" gradientUnits="userSpaceOnUse" gradientTransform="translate(97.2 398) scale(320 320)">
<stop stop-color="#85E0B7" stop-opacity="0.25"/>
<stop offset="1" stop-opacity="0"/>
</radialGradient>
<clipPath id="clip0_1827_10097">
<rect width="324" height="398" rx="12" fill="white"/>
</clipPath>
<clipPath id="clip1_1827_10097">
<rect width="324" height="398" fill="white"/>
</clipPath>
<clipPath id="clip2_1827_10097">
<rect width="324" height="398" fill="white"/>
</clipPath>
<clipPath id="clip3_1827_10097">
<rect width="324" height="398" fill="white"/>
</clipPath>
<clipPath id="clip4_1827_10097">
<rect width="24" height="24" fill="white" transform="translate(88 282)"/>
</clipPath>
<clipPath id="clip5_1827_10097">
<rect width="24" height="24" fill="white" transform="translate(88 282)"/>
</clipPath>
<clipPath id="clip6_1827_10097">
<rect width="24" height="24" fill="white" transform="translate(88 282)"/>
</clipPath>
</defs>
</svg>
