<svg width="419" height="399" viewBox="0 0 419 399" fill="none" xmlns="http://www.w3.org/2000/svg">
<g clip-path="url(#clip0_2311_1817)">
<g clip-path="url(#clip1_2311_1817)">
<g clip-path="url(#clip2_2311_1817)">
<mask id="mask0_2311_1817" style="mask-type:luminance" maskUnits="userSpaceOnUse" x="20" y="-20" width="398" height="439">
<path d="M20.5824 -19.0854H417.657V418.715H20.5824V-19.0854Z" fill="white"/>
</mask>
<g mask="url(#mask0_2311_1817)">
<path d="M-81.2316 370.464L219.599 205.923L519.275 370.464H-81.2316Z" fill="url(#paint0_linear_2311_1817)"/>
<mask id="mask1_2311_1817" style="mask-type:alpha" maskUnits="userSpaceOnUse" x="31" y="-8" width="377" height="418">
<path d="M31.7819 -7.27295H407.013V409.325H31.7819V-7.27295Z" fill="url(#paint1_radial_2311_1817)"/>
</mask>
<g mask="url(#mask1_2311_1817)">
<path d="M396.517 303.684V99.5451L218.839 -2.52441L41.161 99.5451V303.684M396.517 303.684L218.839 405.754L41.161 303.684M396.517 303.684L219.737 206.301M41.161 303.684L219.737 206.301M219.737 206.301V2.38607M262.023 229.54V32.8213M302.663 251.928V55.2947M348.486 277.171V82.4638M176.169 230.111V32.8213M137.047 251.416V55.3629M92.1311 274.77V80.0396M41.8493 258.678L219.351 158.235M41.8493 209.513L219.351 109.07M41.8493 162.232L219.351 61.7874M396.615 258.882L220.132 158.437M396.615 209.937L220.132 108.475M396.615 159.381L220.132 61.991" stroke="#7E7E7E" strokeWidth="0.50907"/>
</g>
<g opacity="0.2">
<path d="M195.197 46.0014C196.486 46.0014 197.531 44.9566 197.531 43.6678C197.531 42.379 196.486 41.3342 195.197 41.3342C193.909 41.3342 192.864 42.379 192.864 43.6678C192.864 44.9566 193.909 46.0014 195.197 46.0014Z" fill="#1C1C1C"/>
<path d="M91.9244 144.809C92.4867 144.809 92.9425 144.355 92.9425 143.796C92.9425 143.236 92.4867 142.782 91.9244 142.782C91.3621 142.782 90.9062 143.236 90.9062 143.796C90.9062 144.355 91.3621 144.809 91.9244 144.809Z" fill="#00FFA7"/>
<path d="M166.296 83.7071C167.14 83.7071 167.824 83.027 167.824 82.188C167.824 81.3491 167.14 80.6689 166.296 80.6689C165.453 80.6689 164.769 81.3491 164.769 82.188C164.769 83.027 165.453 83.7071 166.296 83.7071Z" fill="#1C1C1C"/>
<path d="M332.238 135.453C333.363 135.453 334.274 134.546 334.274 133.427C334.274 132.308 333.363 131.401 332.238 131.401C331.113 131.401 330.202 132.308 330.202 133.427C330.202 134.546 331.113 135.453 332.238 135.453Z" fill="#00FFA7"/>
<path d="M315.448 239.69C317.742 239.69 319.602 237.84 319.602 235.557C319.602 233.275 317.742 231.425 315.448 231.425C313.154 231.425 311.294 233.275 311.294 235.557C311.294 237.84 313.154 239.69 315.448 239.69Z" fill="#1C1C1C"/>
<path d="M117.437 209.652C118.4 209.652 119.18 208.875 119.18 207.917C119.18 206.959 118.4 206.182 117.437 206.182C116.474 206.182 115.694 206.959 115.694 207.917C115.694 208.875 116.474 209.652 117.437 209.652Z" fill="#1C1C1C"/>
<path d="M320.164 198.242C321.126 198.242 321.907 197.465 321.907 196.507C321.907 195.548 321.126 194.772 320.164 194.772C319.201 194.772 318.421 195.548 318.421 196.507C318.421 197.465 319.201 198.242 320.164 198.242Z" fill="#1C1C1C"/>
<path d="M367.906 287.206C369.195 287.206 370.24 286.161 370.24 284.872C370.24 283.583 369.195 282.539 367.906 282.539C366.618 282.539 365.573 283.583 365.573 284.872C365.573 286.161 366.618 287.206 367.906 287.206Z" fill="#1C1C1C"/>
<path d="M119.996 85.7546C121.12 85.7546 122.032 84.8475 122.032 83.7285C122.032 82.6095 121.12 81.7024 119.996 81.7024C118.871 81.7024 117.959 82.6095 117.959 83.7285C117.959 84.8475 118.871 85.7546 119.996 85.7546Z" fill="#00FFA7"/>
<path d="M359.327 84.7935C360.471 84.7935 361.4 83.8699 361.4 82.7307C361.4 81.5915 360.471 80.668 359.327 80.668C358.182 80.668 357.254 81.5915 357.254 82.7307C357.254 83.8699 358.182 84.7935 359.327 84.7935Z" fill="#1C1C1C"/>
<path d="M302.076 334.255C302.638 334.255 303.094 333.801 303.094 333.242C303.094 332.682 302.638 332.229 302.076 332.229C301.513 332.229 301.057 332.682 301.057 333.242C301.057 333.801 301.513 334.255 302.076 334.255Z" fill="#00FFA7"/>
<path d="M326.526 291.28C327.37 291.28 328.053 290.6 328.053 289.761C328.053 288.922 327.37 288.242 326.526 288.242C325.683 288.242 324.999 288.922 324.999 289.761C324.999 290.6 325.683 291.28 326.526 291.28Z" fill="#00FFA7"/>
<path d="M126.789 284.596C128.221 284.596 129.382 283.441 129.382 282.016C129.382 280.591 128.221 279.436 126.789 279.436C125.356 279.436 124.195 280.591 124.195 282.016C124.195 283.441 125.356 284.596 126.789 284.596Z" fill="#00FFA7"/>
<path d="M250.604 95.1509C252.036 95.1509 253.197 93.9958 253.197 92.5709C253.197 91.1461 252.036 89.991 250.604 89.991C249.171 89.991 248.01 91.1461 248.01 92.5709C248.01 93.9958 249.171 95.1509 250.604 95.1509Z" fill="#1C1C1C"/>
<path d="M75.3033 299.63C76.5921 299.63 77.6369 298.585 77.6369 297.296C77.6369 296.008 76.5921 294.963 75.3033 294.963C74.0145 294.963 72.9697 296.008 72.9697 297.296C72.9697 298.585 74.0145 299.63 75.3033 299.63Z" fill="#1C1C1C"/>
<path d="M277.807 38.8672C278.37 38.8672 278.825 38.4136 278.825 37.8541C278.825 37.2946 278.37 36.8411 277.807 36.8411C277.245 36.8411 276.789 37.2946 276.789 37.8541C276.789 38.4136 277.245 38.8672 277.807 38.8672Z" fill="#00FFA7"/>
</g>
<path d="M285.419 213.094C286.543 213.094 287.455 212.187 287.455 211.068C287.455 209.949 286.543 209.042 285.419 209.042C284.294 209.042 283.383 209.949 283.383 211.068C283.383 212.187 284.294 213.094 285.419 213.094Z" fill="#00FFA7"/>
<path d="M195.338 236.859C197.025 236.859 198.392 235.498 198.392 233.819C198.392 232.141 197.025 230.78 195.338 230.78C193.651 230.78 192.283 232.141 192.283 233.819C192.283 235.498 193.651 236.859 195.338 236.859Z" fill="#00FFA7"/>
<path d="M218.869 171.752C220.589 171.752 221.983 170.364 221.983 168.653C221.983 166.942 220.589 165.555 218.869 165.555C217.15 165.555 215.756 166.942 215.756 168.653C215.756 170.364 217.15 171.752 218.869 171.752Z" fill="#00FFA7"/>
<path d="M191.782 154.781C192.906 154.781 193.818 153.874 193.818 152.755C193.818 151.636 192.906 150.729 191.782 150.729C190.657 150.729 189.745 151.636 189.745 152.755C189.745 153.874 190.657 154.781 191.782 154.781Z" fill="#00FFA7"/>
<path d="M184.557 195.491C187.138 195.491 189.231 193.408 189.231 190.84C189.231 188.271 187.138 186.189 184.557 186.189C181.975 186.189 179.883 188.271 179.883 190.84C179.883 193.408 181.975 195.491 184.557 195.491Z" fill="#00FFA7"/>
<path d="M234.735 253.615C236.141 253.615 237.28 252.481 237.28 251.083C237.28 249.684 236.141 248.551 234.735 248.551C233.329 248.551 232.189 249.684 232.189 251.083C232.189 252.481 233.329 253.615 234.735 253.615Z" fill="#00FFA7"/>
<g opacity="0.2">
<mask id="mask2_2311_1817" style="mask-type:alpha" maskUnits="userSpaceOnUse" x="137" y="156" width="83" height="143">
<g opacity="0.2">
<path d="M219.919 203.675L137.319 156.003L137.713 251.022L219.919 298.656V203.675Z" fill="url(#paint2_linear_2311_1817)"/>
</g>
</mask>
<g mask="url(#mask2_2311_1817)">
<path d="M219.919 203.675L137.319 156.003L137.713 251.022L219.919 298.656V203.675Z" fill="#3ECF8E"/>
</g>
<mask id="mask3_2311_1817" style="mask-type:alpha" maskUnits="userSpaceOnUse" x="219" y="155" width="84" height="144">
<g opacity="0.2">
<path d="M219.681 203.668L302.322 155.82V250.924L220.044 298.852L219.681 203.668Z" fill="url(#paint3_linear_2311_1817)"/>
</g>
</mask>
<g mask="url(#mask3_2311_1817)">
<path d="M219.681 203.668L302.322 155.82V250.924L220.044 298.852L219.681 203.668Z" fill="#3ECF8E"/>
</g>
<mask id="mask4_2311_1817" style="mask-type:alpha" maskUnits="userSpaceOnUse" x="137" y="109" width="165" height="95">
<g opacity="0.2">
<path d="M219.894 203.66L137.987 156.421L219.769 109.204L301.043 156.141L219.894 203.66Z" fill="url(#paint4_linear_2311_1817)"/>
</g>
</mask>
<g mask="url(#mask4_2311_1817)">
<path d="M219.894 203.66L137.987 156.421L219.769 109.204L301.043 156.141L219.894 203.66Z" fill="#3ECF8E"/>
</g>
</g>
<g opacity="0.8" filter="url(#filter0_f_2311_1817)">
<path d="M219.686 108.906L301.852 156.345V251.223L219.686 298.662L137.519 251.223V156.345L219.686 108.906Z" stroke="#3FCF8E" strokeWidth="1.50685" strokeLinejoin="bevel"/>
</g>
</g>
</g>
</g>
</g>
<defs>
<filter id="filter0_f_2311_1817" x="129.761" y="101.249" width="179.849" height="205.07" filterUnits="userSpaceOnUse" color-interpolation-filters="sRGB">
<feFlood flood-opacity="0" result="BackgroundImageFix"/>
<feBlend mode="normal" in="SourceGraphic" in2="BackgroundImageFix" result="shape"/>
<feGaussianBlur stdDeviation="3.5024" result="effect1_foregroundBlur_2311_1817"/>
</filter>
<linearGradient id="paint0_linear_2311_1817" x1="217.572" y1="248.738" x2="217.572" y2="303.845" gradientUnits="userSpaceOnUse">
<stop stop-color="white" stop-opacity="0.1"/>
<stop offset="1" stop-color="#5D6167" stop-opacity="0"/>
</linearGradient>
<radialGradient id="paint1_radial_2311_1817" cx="0" cy="0" r="1" gradientUnits="userSpaceOnUse" gradientTransform="translate(219.397 201.026) rotate(90) scale(178.126 160.437)">
<stop stop-color="white"/>
<stop offset="1" stop-color="white" stop-opacity="0"/>
</radialGradient>
<linearGradient id="paint2_linear_2311_1817" x1="151.334" y1="235.421" x2="234.235" y2="193.971" gradientUnits="userSpaceOnUse">
<stop stop-color="white"/>
<stop offset="1" stop-color="white" stop-opacity="0"/>
</linearGradient>
<linearGradient id="paint3_linear_2311_1817" x1="261.001" y1="155.82" x2="261.001" y2="298.852" gradientUnits="userSpaceOnUse">
<stop stop-color="white"/>
<stop offset="1" stop-color="white" stop-opacity="0"/>
</linearGradient>
<linearGradient id="paint4_linear_2311_1817" x1="178.2" y1="147.15" x2="268.011" y2="188.601" gradientUnits="userSpaceOnUse">
<stop stop-color="white"/>
<stop offset="1" stop-color="white" stop-opacity="0"/>
</linearGradient>
<clipPath id="clip0_2311_1817">
<rect width="437.8" height="437.8" fill="white" transform="translate(0.219604 -19.0854)"/>
</clipPath>
<clipPath id="clip1_2311_1817">
<rect width="437.8" height="437.8" fill="white" transform="translate(0.219604 -19.0854)"/>
</clipPath>
<clipPath id="clip2_2311_1817">
<rect width="397.074" height="437.8" fill="white" transform="translate(20.5824 -19.0854)"/>
</clipPath>
</defs>
</svg>
